<?xml version="1.0" encoding="UTF-8"?>
<svg width="48px" height="48px" viewBox="0 0 48 48" version="1.1" xmlns="http://www.w3.org/2000/svg" xmlns:xlink="http://www.w3.org/1999/xlink">
    <!-- Generator: Sketch 51.1 (57501) - http://www.bohemiancoding.com/sketch -->
    <title>Icon-Dropshop-Active</title>
    <desc>Created with Sketch.</desc>
    <defs></defs>
    <g id="Icon-Dropshop-Active" stroke="none" stroke-width="1" fill="none" fill-rule="evenodd" stroke-linecap="round" stroke-linejoin="round">
        <g id="Group" transform="translate(7.000000, 9.000000)" stroke="#0041FF" stroke-width="2">
            <path d="M1,2.11796392e-15 L5.03870968,1.28785871e-14 C5.59099443,1.42487162e-14 6.03870968,0.44771525 6.03870968,1 L6.03870968,8.70967742 L14.7099054,4.60856121 C15.2091661,4.37243159 15.8053177,4.58574148 16.0414474,5.08500218 C16.1046659,5.21866831 16.1374559,5.36469051 16.1374559,5.51255268 L16.1374559,9.58064516 L25.5178244,4.41786057 C26.0016671,4.15156235 26.6097764,4.32791696 26.8760746,4.81175961 C26.9573705,4.95946775 27,5.12533294 27,5.29393518 L27,15.7876725 L27,27 L19.1612903,27 L2,27 C0.8954305,27 1.65329113e-15,26.1045695 -4.4408921e-16,25 L-2.10942375e-15,1 C-2.17705912e-15,0.44771525 0.44771525,1.01453063e-16 1,0 Z" id="Rectangle-14" fill="#FFFFFF"></path>
            <path d="M13,13 L25,13 C26.1045695,13 27,13.8954305 27,15 L27,16 L31.6368202,17.5443656 C32.4537383,17.816453 33.0048218,18.5808464 33.0048218,19.4418845 C33.0048218,21.9379816 33.0048218,24.4340787 33.0048218,26.9301758 C31.0032145,26.9301758 29.0016073,26.9301758 27,26.9301758 L13,26.9301758 C11.8954305,26.9301758 11,26.0347453 11,24.9301758 L11,15 C11,13.8954305 11.8954305,13 13,13 Z" id="Rectangle-15"></path>
            <circle id="Oval-13" fill="#FFFFFF" cx="17.9368939" cy="27.9368939" r="2.43689391"></circle>
            <circle id="Oval-13" fill="#FFFFFF" cx="27.9368939" cy="27.9368939" r="2.43689391"></circle>
            <path d="M27,21 L33,21" id="Path-14" fill="#FFFFFF"></path>
        </g>
    </g>
</svg>